<svg xmlns="http://www.w3.org/2000/svg" viewBox="0 0 572.467 180.358">
  <title>icon-with-name-color</title>
  <g>
    <path d="M790.071,159.258q8.161,8.463,8.162,27.036v50.627H775.169V186.294q0-7.488-3.295-11.159t-11.384-3.669q-9.59,0-19.173,7.938v57.517H718.25V110.205h23.067v49.727q11.083-9.135,24.115-9.137Q781.906,150.795,790.071,159.258Z" transform="translate(-225.767 -101.821)" style="fill: #424242"/>
    <path d="M670.441,175.66v33.251q0,5.245,1.723,7.339t6.216,2.1a34.167,34.167,0,0,0,9.137-1.2v19.772a70.629,70.629,0,0,1-15.127,1.946q-12.885,0-18.948-5.542t-6.068-16.476V175.66H635.991V155.139h11.383V126.681h23.067v28.458h19.174V175.66Z" transform="translate(-225.767 -101.821)" style="fill: #424242"/>
    <path d="M597.979,157.011q8.089,4.419,10.786,11.758t2.7,18.723v49.429H588.393v-7.19a35.973,35.973,0,0,1-10.56,7.04,30.233,30.233,0,0,1-11.457,2.1q-13.782,0-21.87-7.564t-8.088-20.894q0-13.629,8.314-20.97t22.992-7.339a45.046,45.046,0,0,1,20.669,4.493,23.029,23.029,0,0,0-1.348-7.864,8.545,8.545,0,0,0-4.716-4.493q-3.522-1.572-10.412-1.573H556.341v-20.07h17.823Q589.892,152.593,597.979,157.011Zm-9.586,56.244V202.62a35.416,35.416,0,0,0-15.427-3.745q-5.991,0-9.586,2.7t-3.6,8.538q0,10.636,11.235,10.634Q579.4,220.744,588.393,213.255Z" transform="translate(-225.767 -101.821)" style="fill: #424242"/>
    <path d="M495.979,155.214a33.891,33.891,0,0,1,13.555,15.053Q514.4,180.3,514.4,194.831T509.534,219.4a33.859,33.859,0,0,1-13.555,15.053,39.11,39.11,0,0,1-19.921,5.019q-11.835,0-23.067-8.538v41.04H429.925V152.593h23.066v6.29q11.084-8.685,23.067-8.687A39.109,39.109,0,0,1,495.979,155.214Zm-10.41,57.591q4.866-6.14,4.868-17.974,0-11.682-4.868-17.824t-14.305-6.14q-8.986,0-18.273,6.739v34.45q9.437,6.893,18.273,6.891Q480.7,218.947,485.569,212.805Z" transform="translate(-225.767 -101.821)" style="fill: #424242"/>
  </g>
  <g>
    <path d="M382.855,187.007,332.908,106.5a10.011,10.011,0,0,0-8.518-4.676H235.729c-7.742,0-12.516,8.218-8.518,14.663L329.243,280.948a9.822,9.822,0,0,0,3.665-3.445l49.947-80.51A9.435,9.435,0,0,0,382.855,187.007Z" transform="translate(-225.767 -101.821)" style="fill: #22b573"/>
    <path d="M270.963,196.993l-43.752,70.523c-4,6.445.776,14.663,8.518,14.663H324.39a10.156,10.156,0,0,0,4.853-1.231l-58.28-93.941A9.439,9.439,0,0,1,270.963,196.993Z" transform="translate(-225.767 -101.821)" style="fill: #006837"/>
  </g>
</svg>
